<svg width="449" height="107" viewBox="0 0 449 107" fill="none" xmlns="http://www.w3.org/2000/svg">
	<path
		fill-rule="evenodd"
		clip-rule="evenodd"
		d="M0.96582 85.8932C0.96582 88.9529 3.4292 91.4331 6.46809 91.4331H23.714C26.7528 91.4331 29.2162 88.9529 29.2162 85.8932V68.2008C29.2162 66.7514 30.3835 65.5762 31.823 65.5762H42.1067C45.1456 65.5762 47.609 63.0959 47.609 60.0363V39.7197H54.7837C57.8232 39.7197 60.2865 37.2389 60.2865 34.1793V16.4869C60.2865 13.4271 57.823 10.947 54.7837 10.947H6.46809C3.4292 10.947 0.96582 13.4272 0.96582 16.4869V85.8932ZM44.713 39.7197H20.1929C17.1534 39.7197 14.6901 37.2389 14.6901 34.1793V29.4153C14.6901 26.3556 17.1536 23.8755 20.1929 23.8755H42.1067C45.1456 23.8755 47.609 26.3557 47.609 29.4153V36.804H54.7837C56.2236 36.804 57.3905 35.6288 57.3905 34.1793V16.4869C57.3905 15.0376 56.2238 13.8627 54.7837 13.8627H6.46809C5.02858 13.8627 3.86175 15.0375 3.86175 16.4869V85.8932C3.86175 87.3426 5.02858 88.5174 6.46809 88.5174H23.714C25.1535 88.5174 26.3203 87.3426 26.3203 85.8932V68.2008C26.3203 65.1411 28.7842 62.6604 31.823 62.6604H42.1067C43.5462 62.6604 44.713 61.4856 44.713 60.0363V39.7197ZM44.713 36.804V29.4153C44.713 27.966 43.5462 26.7912 42.1067 26.7912H20.1929C18.7528 26.7912 17.5861 27.9661 17.5861 29.4153V34.1793C17.5861 35.6288 18.753 36.804 20.1929 36.804H44.713Z"
		fill="#111827"
	/>
	<path
		d="M117.853 28.5833V39.6264H97.8906V48.4043H112.615V58.9519H97.8906V78.4897H84.016V28.5833H117.853ZM141.465 78.9853C137.501 78.9853 133.937 78.1594 130.776 76.5076C127.661 74.8559 125.207 72.4963 123.413 69.4287C121.62 66.3612 120.724 62.7509 120.724 58.598C120.724 54.4922 121.62 50.9055 123.413 47.838C125.254 44.7705 127.732 42.4108 130.846 40.7591C134.008 39.1073 137.571 38.2814 141.536 38.2814C145.5 38.2814 149.039 39.1073 152.154 40.7591C155.316 42.4108 157.793 44.7705 159.587 47.838C161.427 50.9055 162.348 54.4922 162.348 58.598C162.348 62.7037 161.427 66.314 159.587 69.4287C157.793 72.4963 155.316 74.8559 152.154 76.5076C148.992 78.1594 145.429 78.9853 141.465 78.9853ZM141.465 66.9511C143.4 66.9511 145.004 66.2432 146.278 64.8274C147.6 63.3644 148.261 61.288 148.261 58.598C148.261 55.908 147.6 53.8551 146.278 52.4393C145.004 51.0235 143.423 50.3156 141.536 50.3156C139.648 50.3156 138.067 51.0235 136.793 52.4393C135.518 53.8551 134.881 55.908 134.881 58.598C134.881 61.3351 135.495 63.4116 136.722 64.8274C137.949 66.2432 139.53 66.9511 141.465 66.9511ZM181.159 45.7851C182.717 43.5199 184.604 41.7265 186.822 40.4051C189.04 39.0837 191.424 38.423 193.972 38.423V53.218H190.079C187.058 53.218 184.817 53.8079 183.354 54.9877C181.891 56.1675 181.159 58.2204 181.159 61.1464V78.4897H167.285V38.777H181.159V45.7851ZM250.127 38.423C255.129 38.423 259.046 39.9332 261.878 42.9535C264.757 45.9739 266.196 50.1033 266.196 55.3417V78.4897H252.321V57.1822C252.321 55.0585 251.731 53.4068 250.552 52.2269C249.372 51.0471 247.767 50.4572 245.738 50.4572C243.709 50.4572 242.104 51.0471 240.924 52.2269C239.744 53.4068 239.154 55.0585 239.154 57.1822V78.4897H225.28V57.1822C225.28 55.0585 224.69 53.4068 223.51 52.2269C222.377 51.0471 220.796 50.4572 218.767 50.4572C216.691 50.4572 215.063 51.0471 213.883 52.2269C212.703 53.4068 212.113 55.0585 212.113 57.1822V78.4897H198.238V38.777H212.113V44.0154C213.34 42.3164 214.921 40.9714 216.856 39.9804C218.838 38.9421 221.103 38.423 223.652 38.423C226.578 38.423 229.173 39.0601 231.438 40.3343C233.751 41.6085 235.568 43.4019 236.889 45.7143C238.305 43.5435 240.169 41.7973 242.482 40.4759C244.794 39.1073 247.342 38.423 250.127 38.423ZM270.824 58.598C270.824 54.4922 271.556 50.9055 273.019 47.838C274.529 44.7705 276.558 42.4108 279.107 40.7591C281.702 39.1073 284.581 38.2814 287.743 38.2814C290.48 38.2814 292.84 38.8242 294.822 39.9096C296.804 40.995 298.338 42.458 299.423 44.2985V38.777H313.298V78.4897H299.423V72.9682C298.338 74.8087 296.78 76.2717 294.751 77.3571C292.769 78.4426 290.433 78.9853 287.743 78.9853C284.581 78.9853 281.702 78.1594 279.107 76.5076C276.558 74.8559 274.529 72.4963 273.019 69.4287C271.556 66.314 270.824 62.7037 270.824 58.598ZM299.423 58.598C299.423 56.0496 298.715 54.0439 297.3 52.5809C295.931 51.1179 294.232 50.3864 292.203 50.3864C290.126 50.3864 288.404 51.1179 287.035 52.5809C285.667 53.9967 284.982 56.0024 284.982 58.598C284.982 61.1464 285.667 63.1757 287.035 64.6858C288.404 66.1488 290.126 66.8803 292.203 66.8803C294.232 66.8803 295.931 66.1488 297.3 64.6858C298.715 63.2229 299.423 61.1936 299.423 58.598ZM346.476 38.423C351.054 38.423 354.688 39.9568 357.378 43.0243C360.067 46.0447 361.412 50.1504 361.412 55.3417V78.4897H347.538V57.1822C347.538 54.9169 346.948 53.1472 345.768 51.873C344.588 50.5516 343.007 49.8909 341.025 49.8909C338.949 49.8909 337.321 50.5516 336.141 51.873C334.961 53.1472 334.371 54.9169 334.371 57.1822V78.4897H320.496V38.777H334.371V44.4401C335.598 42.6468 337.25 41.2074 339.326 40.122C341.403 38.9893 343.786 38.423 346.476 38.423ZM366.053 58.598C366.053 54.4922 366.902 50.9055 368.601 47.838C370.3 44.7705 372.66 42.4108 375.68 40.7591C378.747 39.1073 382.24 38.2814 386.157 38.2814C391.206 38.2814 395.454 39.6736 398.899 42.458C402.344 45.1952 404.562 49.0414 405.553 53.9967H390.829C389.979 51.4011 388.328 50.1033 385.874 50.1033C384.127 50.1033 382.735 50.8347 381.697 52.2977C380.706 53.7135 380.21 55.8136 380.21 58.598C380.21 61.3823 380.706 63.506 381.697 64.969C382.735 66.432 384.127 67.1635 385.874 67.1635C388.375 67.1635 390.026 65.8657 390.829 63.2701H405.553C404.562 68.1781 402.344 72.0243 398.899 74.8087C395.454 77.5931 391.206 78.9853 386.157 78.9853C382.24 78.9853 378.747 78.1594 375.68 76.5076C372.66 74.8559 370.3 72.4963 368.601 69.4287C366.902 66.3612 366.053 62.7509 366.053 58.598ZM448.552 58.1732C448.552 59.2587 448.481 60.3441 448.339 61.4295H422.077C422.218 63.6004 422.808 65.2286 423.846 66.314C424.932 67.3522 426.3 67.8714 427.952 67.8714C430.265 67.8714 431.916 66.8331 432.907 64.7566H447.702C447.089 67.4938 445.885 69.9478 444.092 72.1187C442.346 74.2424 440.128 75.9177 437.438 77.1448C434.748 78.3718 431.775 78.9853 428.519 78.9853C424.601 78.9853 421.109 78.1594 418.042 76.5076C415.021 74.8559 412.638 72.4963 410.892 69.4287C409.193 66.3612 408.344 62.7509 408.344 58.598C408.344 54.445 409.193 50.8583 410.892 47.838C412.591 44.7705 414.951 42.4108 417.971 40.7591C421.038 39.1073 424.554 38.2814 428.519 38.2814C432.436 38.2814 435.904 39.0837 438.925 40.6883C441.945 42.2928 444.305 44.6053 446.003 47.6256C447.702 50.5988 448.552 54.1146 448.552 58.1732ZM434.394 54.7046C434.394 53.0056 433.828 51.6842 432.695 50.7404C431.562 49.7493 430.147 49.2538 428.448 49.2538C426.749 49.2538 425.357 49.7257 424.271 50.6696C423.186 51.5662 422.478 52.9112 422.147 54.7046H434.394Z"
		fill="#111827"
	/>
</svg>
