<svg width="1921" height="1080" viewBox="0 0 1921 1080" fill="none" xmlns="http://www.w3.org/2000/svg">
<g clip-path="url(#clip0_1736_4999)">
<rect width="1920" height="1080" transform="translate(0.5)" fill="#090014" style="fill:#090014;fill:color(display-p3 0.0353 0.0000 0.0784);fill-opacity:1;"/>
<path fill-rule="evenodd" clip-rule="evenodd" d="M-12.4996 -25.9097C71.4026 -9.96589 134.53 9.89191 193.856 41.9177C253.186 73.946 308.742 118.159 377.484 182.853L378.244 182.045C309.473 117.324 253.836 73.0359 194.383 40.9411C134.925 8.84378 71.6788 -11.0431 -12.2924 -27L-12.4996 -25.9097ZM-12.4996 0.626223C71.4026 16.57 134.53 36.4278 193.856 68.4536C253.186 100.482 308.742 144.695 377.484 209.389L378.244 208.581C309.473 143.86 253.836 99.5719 194.383 67.477C134.925 35.3797 71.6788 15.4928 -12.2924 -0.464087L-12.4996 0.626223ZM193.856 94.9902C134.53 62.9644 71.4026 43.1066 -12.4996 27.1628L-12.2924 26.0725C71.6788 42.0294 134.925 61.9163 194.383 94.0136C253.836 126.108 309.473 170.397 378.244 235.117L377.484 235.926C308.742 171.232 253.186 127.018 193.856 94.9902ZM-12.4996 53.6987C71.4026 69.6425 134.53 89.5003 193.856 121.526C253.186 153.554 308.742 197.768 377.484 262.462L378.244 261.653C309.473 196.933 253.836 152.644 194.383 120.55C134.925 88.4522 71.6788 68.5653 -12.2924 52.6084L-12.4996 53.6987ZM193.856 148.063C134.53 116.037 71.4026 96.1791 -12.4996 80.2353L-12.2924 79.145C71.6788 95.1019 134.925 114.989 194.383 147.086C253.836 179.181 309.473 223.469 378.244 288.19L377.484 288.998C308.742 224.304 253.186 180.091 193.856 148.063ZM-12.4996 106.771C71.4026 122.715 134.53 142.573 193.856 174.599C253.186 206.627 308.742 250.84 377.484 315.534L378.244 314.726C309.473 250.005 253.836 205.717 194.383 173.622C134.925 141.525 71.6788 121.638 -12.2924 105.681L-12.4996 106.771ZM193.856 201.135C134.53 169.109 71.4026 149.252 -12.4996 133.308L-12.2924 132.218C71.6788 148.174 134.925 168.061 194.383 200.159C253.836 232.253 309.473 276.542 378.244 341.262L377.484 342.071C308.742 277.377 253.186 233.164 193.856 201.135ZM-12.4996 159.844C71.4026 175.788 134.53 195.645 193.856 227.671C253.186 259.699 308.742 303.913 377.484 368.607L378.244 367.798C309.473 303.078 253.836 258.789 194.383 226.695C134.925 194.597 71.6788 174.71 -12.2924 158.753L-12.4996 159.844ZM193.856 254.208C134.53 222.182 71.4026 202.324 -12.4996 186.38L-12.2924 185.29C71.6788 201.247 134.925 221.134 194.383 253.231C253.836 285.326 309.473 329.614 378.244 394.335L377.484 395.143C308.742 330.449 253.186 286.236 193.856 254.208ZM-12.4996 212.916C71.4026 228.86 134.53 248.718 193.856 280.744C253.186 312.772 308.742 356.985 377.484 421.679L378.244 420.871C309.473 356.15 253.836 311.862 194.383 279.767C134.925 247.67 71.6788 227.783 -12.2924 211.826L-12.4996 212.916ZM193.856 307.28C134.53 275.254 71.4026 255.397 -12.4996 239.453L-12.2924 238.363C71.6788 254.319 134.925 274.206 194.383 306.304C253.836 338.398 309.473 382.687 378.244 447.407L377.484 448.216C308.742 383.522 253.186 339.309 193.856 307.28ZM-12.4996 265.989C71.4026 281.933 134.53 301.79 193.856 333.816C253.186 365.844 308.742 410.058 377.484 474.752L378.244 473.943C309.473 409.223 253.836 364.934 194.383 332.84C134.925 300.742 71.6788 280.855 -12.2924 264.898L-12.4996 265.989ZM193.856 360.353C134.53 328.327 71.4026 308.469 -12.4996 292.525L-12.2924 291.435C71.6788 307.392 134.925 327.279 194.383 359.376C253.836 391.471 309.473 435.759 378.244 500.48L377.484 501.288C308.742 436.594 253.186 392.381 193.856 360.353ZM-12.4996 319.061C71.4026 335.005 134.53 354.863 193.856 386.889C253.186 418.917 308.742 463.13 377.484 527.824L378.244 527.016C309.473 462.295 253.836 418.007 194.383 385.912C134.925 353.815 71.6788 333.928 -12.2924 317.971L-12.4996 319.061ZM193.856 413.425C134.53 381.399 71.4026 361.542 -12.4996 345.598L-12.2924 344.508C71.6788 360.465 134.925 380.351 194.383 412.449C253.836 444.544 309.473 488.832 378.244 553.552L377.484 554.361C308.742 489.667 253.186 445.454 193.856 413.425ZM-12.4996 372.134C71.4026 388.078 134.53 407.935 193.856 439.961C253.186 471.989 308.742 516.203 377.484 580.897L378.244 580.088C309.473 515.368 253.836 471.079 194.383 438.985C134.925 406.887 71.6788 387 -12.2924 371.043L-12.4996 372.134ZM193.856 466.498C134.53 434.472 71.4026 414.614 -12.4996 398.67L-12.2924 397.58C71.6788 413.537 134.925 433.424 194.383 465.521C253.836 497.616 309.473 541.904 378.244 606.625L377.484 607.433C308.742 542.74 253.186 498.526 193.856 466.498ZM-12.4996 425.206C71.4026 441.15 134.53 461.008 193.856 493.034C253.186 525.062 308.742 569.275 377.484 633.969L378.244 633.161C309.473 568.44 253.836 524.152 194.383 492.057C134.925 459.96 71.6788 440.073 -12.2924 424.116L-12.4996 425.206ZM193.856 519.57C134.53 487.544 71.4026 467.686 -12.4996 451.742L-12.2924 450.652C71.6788 466.609 134.925 486.496 194.383 518.593C253.836 550.688 309.473 594.976 378.244 659.697L377.484 660.505C308.742 595.811 253.186 551.598 193.856 519.57ZM-12.4996 478.279C71.4026 494.223 134.53 514.08 193.856 546.106C253.186 578.135 308.742 622.348 377.484 687.042L378.244 686.233C309.473 621.513 253.836 577.224 194.383 545.13C134.925 513.032 71.6788 493.145 -12.2924 477.189L-12.4996 478.279ZM193.856 572.643C134.53 540.617 71.4026 520.759 -12.4996 504.815L-12.2924 503.725C71.6788 519.682 134.925 539.569 194.383 571.666C253.836 603.761 309.473 648.049 378.244 712.77L377.484 713.578C308.742 648.885 253.186 604.671 193.856 572.643ZM-12.4996 531.351C71.4026 547.295 134.53 567.153 193.856 599.179C253.186 631.207 308.742 675.42 377.484 740.114L378.244 739.306C309.473 674.585 253.836 630.297 194.383 598.202C134.925 566.105 71.6788 546.218 -12.2924 530.261L-12.4996 531.351ZM193.856 625.715C134.53 593.689 71.4026 573.831 -12.4996 557.887L-12.2924 556.797C71.6788 572.754 134.925 592.641 194.383 624.738C253.836 656.833 309.473 701.121 378.244 765.842L377.484 766.65C308.742 701.956 253.186 657.743 193.856 625.715ZM-12.4996 584.424C71.4026 600.368 134.53 620.225 193.856 652.251C253.186 684.28 308.742 728.493 377.484 793.187L378.244 792.378C309.473 727.658 253.836 683.37 194.383 651.275C134.925 619.177 71.6788 599.29 -12.2924 583.334L-12.4996 584.424ZM193.856 678.788C134.53 646.762 71.4026 626.904 -12.4996 610.961L-12.2924 609.87C71.6788 625.827 134.925 645.714 194.383 677.811C253.836 709.906 309.473 754.194 378.244 818.915L377.484 819.723C308.742 755.03 253.186 710.816 193.856 678.788ZM-12.4996 637.496C71.4026 653.44 134.53 673.298 193.856 705.324C253.186 737.352 308.742 781.565 377.484 846.259L378.244 845.451C309.473 780.73 253.836 736.442 194.383 704.347C134.925 672.25 71.6788 652.363 -12.2924 636.406L-12.4996 637.496ZM193.856 731.86C134.53 699.834 71.4026 679.976 -12.4996 664.032L-12.2924 662.942C71.6788 678.899 134.925 698.786 194.383 730.883C253.836 762.978 309.473 807.266 378.244 871.987L377.484 872.795C308.742 808.101 253.186 763.888 193.856 731.86ZM-12.4999 690.569C71.4023 706.513 134.53 726.371 193.855 758.396C253.185 790.425 308.741 834.638 377.483 899.332L378.244 898.524C309.473 833.803 253.836 789.515 194.382 757.42C134.925 725.323 71.6785 705.436 -12.2927 689.479L-12.4999 690.569ZM193.752 785.373C134.426 753.347 71.2987 733.489 -12.6035 717.545L-12.3963 716.455C71.5749 732.412 134.821 752.299 194.279 784.396C253.732 816.491 309.37 860.779 378.14 925.5L377.38 926.308C308.638 861.614 253.082 817.401 193.752 785.373ZM-12.707 744.521C71.1952 760.465 134.323 780.323 193.648 812.349C252.978 844.377 308.534 888.59 377.276 953.284L378.037 952.476C309.266 887.755 253.629 843.467 194.175 811.372C134.717 779.275 71.4714 759.388 -12.4998 743.431L-12.707 744.521Z" fill="url(#paint0_linear_1736_4999)" style=""/>
<g filter="url(#filter0_f_1736_4999)">
<rect x="-59.5" y="752.2" width="745.212" height="140.283" transform="rotate(-75.7242 -59.5 752.2)" fill="#FF6423" fill-opacity="0.1" style="fill:#FF6423;fill:color(display-p3 1.0000 0.3922 0.1373);fill-opacity:0.1;"/>
</g>
<path fill-rule="evenodd" clip-rule="evenodd" d="M666.621 582.327C666.621 586.335 669.848 589.584 673.829 589.584H696.42C700.401 589.584 703.628 586.335 703.628 582.327V559.15C703.628 557.252 705.157 555.712 707.043 555.712H720.514C724.495 555.712 727.722 552.463 727.722 548.455V521.841H737.121C741.102 521.841 744.329 518.591 744.329 514.583V491.407C744.329 487.399 741.102 484.15 737.121 484.15H673.829C669.848 484.15 666.621 487.399 666.621 491.407V582.327ZM723.928 521.841H691.808C687.826 521.841 684.599 518.591 684.599 514.583V508.343C684.599 504.335 687.827 501.086 691.808 501.086H720.514C724.495 501.086 727.722 504.335 727.722 508.343V518.022H737.121C739.007 518.022 740.536 516.482 740.536 514.583V491.407C740.536 489.508 739.007 487.969 737.121 487.969H673.829C671.943 487.969 670.415 489.508 670.415 491.407V582.327C670.415 584.226 671.943 585.764 673.829 585.764H696.42C698.306 585.764 699.835 584.226 699.835 582.327V559.15C699.835 555.142 703.062 551.893 707.043 551.893H720.514C722.4 551.893 723.928 550.354 723.928 548.455V521.841ZM723.928 518.022V508.343C723.928 506.444 722.4 504.905 720.514 504.905H691.808C689.921 504.905 688.393 506.444 688.393 508.343V514.583C688.393 516.482 689.922 518.022 691.808 518.022H723.928Z" fill="white" style="fill:white;fill-opacity:1;"/>
<path d="M819.739 507.075V521.542H793.589V533.04H812.877V546.857H793.589V572.451H775.414V507.075H819.739ZM850.67 573.1C845.477 573.1 840.809 572.018 836.667 569.855C832.587 567.691 829.372 564.6 827.023 560.582C824.674 556.563 823.499 551.834 823.499 546.394C823.499 541.015 824.674 536.317 827.023 532.298C829.434 528.28 832.68 525.189 836.76 523.025C840.902 520.862 845.569 519.78 850.762 519.78C855.955 519.78 860.592 520.862 864.672 523.025C868.814 525.189 872.06 528.28 874.409 532.298C876.82 536.317 878.025 541.015 878.025 546.394C878.025 551.772 876.82 556.501 874.409 560.582C872.06 564.6 868.814 567.691 864.672 569.855C860.53 572.018 855.863 573.1 850.67 573.1ZM850.67 557.336C853.204 557.336 855.306 556.409 856.975 554.554C858.706 552.638 859.572 549.917 859.572 546.394C859.572 542.87 858.706 540.181 856.975 538.326C855.306 536.471 853.235 535.544 850.762 535.544C848.29 535.544 846.219 536.471 844.549 538.326C842.88 540.181 842.046 542.87 842.046 546.394C842.046 549.979 842.849 552.699 844.457 554.554C846.064 556.409 848.135 557.336 850.67 557.336ZM902.668 529.609C904.708 526.642 907.181 524.293 910.087 522.562C912.992 520.831 916.114 519.965 919.453 519.965V539.346H914.352C910.396 539.346 907.459 540.119 905.543 541.664C903.626 543.21 902.668 545.899 902.668 549.732V572.451H884.493V520.429H902.668V529.609ZM993.013 519.965C999.566 519.965 1004.7 521.943 1008.41 525.9C1012.18 529.856 1014.06 535.266 1014.06 542.128V572.451H995.888V544.539C995.888 541.757 995.115 539.593 993.57 538.048C992.024 536.502 989.922 535.729 987.264 535.729C984.606 535.729 982.504 536.502 980.958 538.048C979.413 539.593 978.64 541.757 978.64 544.539V572.451H960.465V544.539C960.465 541.757 959.692 539.593 958.146 538.048C956.663 536.502 954.592 535.729 951.933 535.729C949.213 535.729 947.08 536.502 945.535 538.048C943.989 539.593 943.216 541.757 943.216 544.539V572.451H925.041V520.429H943.216V527.291C944.824 525.065 946.895 523.303 949.429 522.005C952.026 520.645 954.993 519.965 958.332 519.965C962.165 519.965 965.565 520.8 968.532 522.469C971.561 524.138 973.941 526.487 975.672 529.516C977.527 526.673 979.969 524.385 982.998 522.654C986.028 520.862 989.366 519.965 993.013 519.965ZM1020.13 546.394C1020.13 541.015 1021.08 536.317 1023 532.298C1024.98 528.28 1027.64 525.189 1030.98 523.025C1034.38 520.862 1038.15 519.78 1042.29 519.78C1045.87 519.78 1048.97 520.491 1051.56 521.912C1054.16 523.334 1056.17 525.251 1057.59 527.662V520.429H1075.77V572.451H1057.59V565.218C1056.17 567.629 1054.13 569.546 1051.47 570.967C1048.87 572.389 1045.81 573.1 1042.29 573.1C1038.15 573.1 1034.38 572.018 1030.98 569.855C1027.64 567.691 1024.98 564.6 1023 560.582C1021.08 556.501 1020.13 551.772 1020.13 546.394ZM1057.59 546.394C1057.59 543.055 1056.66 540.428 1054.81 538.511C1053.02 536.595 1050.79 535.637 1048.13 535.637C1045.41 535.637 1043.15 536.595 1041.36 538.511C1039.57 540.366 1038.67 542.993 1038.67 546.394C1038.67 549.732 1039.57 552.39 1041.36 554.369C1043.15 556.285 1045.41 557.243 1048.13 557.243C1050.79 557.243 1053.02 556.285 1054.81 554.369C1056.66 552.452 1057.59 549.794 1057.59 546.394ZM1119.23 519.965C1125.22 519.965 1129.98 521.974 1133.51 525.993C1137.03 529.949 1138.79 535.328 1138.79 542.128V572.451H1120.62V544.539C1120.62 541.572 1119.85 539.253 1118.3 537.584C1116.75 535.853 1114.68 534.988 1112.09 534.988C1109.37 534.988 1107.23 535.853 1105.69 537.584C1104.14 539.253 1103.37 541.572 1103.37 544.539V572.451H1085.19V520.429H1103.37V527.847C1104.98 525.498 1107.14 523.613 1109.86 522.191C1112.58 520.707 1115.7 519.965 1119.23 519.965ZM1144.87 546.394C1144.87 541.015 1145.98 536.317 1148.21 532.298C1150.44 528.28 1153.53 525.189 1157.48 523.025C1161.5 520.862 1166.08 519.78 1171.21 519.78C1177.82 519.78 1183.39 521.603 1187.9 525.251C1192.41 528.836 1195.32 533.875 1196.62 540.366H1177.33C1176.22 536.966 1174.05 535.266 1170.84 535.266C1168.55 535.266 1166.73 536.224 1165.37 538.141C1164.07 539.995 1163.42 542.746 1163.42 546.394C1163.42 550.041 1164.07 552.823 1165.37 554.739C1166.73 556.656 1168.55 557.614 1170.84 557.614C1174.11 557.614 1176.28 555.914 1177.33 552.514H1196.62C1195.32 558.943 1192.41 563.982 1187.9 567.629C1183.39 571.277 1177.82 573.1 1171.21 573.1C1166.08 573.1 1161.5 572.018 1157.48 569.855C1153.53 567.691 1150.44 564.6 1148.21 560.582C1145.98 556.563 1144.87 551.834 1144.87 546.394ZM1252.94 545.837C1252.94 547.259 1252.85 548.681 1252.67 550.103H1218.26C1218.45 552.947 1219.22 555.079 1220.58 556.501C1222 557.861 1223.79 558.541 1225.96 558.541C1228.99 558.541 1231.15 557.181 1232.45 554.461H1251.83C1251.03 558.047 1249.45 561.262 1247.1 564.105C1244.81 566.887 1241.91 569.082 1238.38 570.689C1234.86 572.297 1230.97 573.1 1226.7 573.1C1221.57 573.1 1216.99 572.018 1212.98 569.855C1209.02 567.691 1205.9 564.6 1203.61 560.582C1201.38 556.563 1200.27 551.834 1200.27 546.394C1200.27 540.953 1201.38 536.255 1203.61 532.298C1205.84 528.28 1208.93 525.189 1212.88 523.025C1216.9 520.862 1221.51 519.78 1226.7 519.78C1231.83 519.78 1236.38 520.831 1240.33 522.933C1244.29 525.034 1247.38 528.064 1249.61 532.02C1251.83 535.915 1252.94 540.521 1252.94 545.837ZM1234.4 541.293C1234.4 539.068 1233.66 537.337 1232.17 536.1C1230.69 534.802 1228.83 534.153 1226.61 534.153C1224.38 534.153 1222.56 534.771 1221.14 536.008C1219.71 537.182 1218.79 538.944 1218.35 541.293H1234.4Z" fill="white" style="fill:white;fill-opacity:1;"/>
<path fill-rule="evenodd" clip-rule="evenodd" d="M2015.24 1196.24C1931.34 1180.3 1868.21 1160.44 1808.89 1128.41C1749.56 1096.39 1694 1052.17 1625.26 987.479L1624.5 988.287C1693.27 1053.01 1748.91 1097.3 1808.36 1129.39C1867.82 1161.49 1931.07 1181.38 2015.04 1197.33L2015.24 1196.24ZM2015.24 1169.71C1931.34 1153.76 1868.21 1133.9 1808.89 1101.88C1749.56 1069.85 1694 1025.64 1625.26 960.943L1624.5 961.751C1693.27 1026.47 1748.91 1070.76 1808.36 1102.86C1867.82 1134.95 1931.07 1154.84 2015.04 1170.8L2015.24 1169.71ZM1808.89 1075.34C1868.21 1107.37 1931.34 1127.23 2015.24 1143.17L2015.04 1144.26C1931.07 1128.3 1867.82 1108.42 1808.36 1076.32C1748.91 1044.22 1693.27 999.935 1624.5 935.215L1625.26 934.406C1694 999.1 1749.56 1043.31 1808.89 1075.34ZM2015.24 1116.63C1931.34 1100.69 1868.21 1080.83 1808.89 1048.81C1749.56 1016.78 1694 972.564 1625.26 907.87L1624.5 908.679C1693.27 973.399 1748.91 1017.69 1808.36 1049.78C1867.82 1081.88 1931.07 1101.77 2015.04 1117.72L2015.24 1116.63ZM1808.89 1022.27C1868.21 1054.3 1931.34 1074.15 2015.24 1090.1L2015.04 1091.19C1931.07 1075.23 1867.82 1055.34 1808.36 1023.25C1748.91 991.151 1693.27 946.863 1624.5 882.142L1625.26 881.334C1694 946.028 1749.56 990.241 1808.89 1022.27ZM2015.24 1063.56C1931.34 1047.62 1868.21 1027.76 1808.89 995.733C1749.56 963.705 1694 919.492 1625.26 854.798L1624.5 855.606C1693.27 920.327 1748.91 964.615 1808.36 996.71C1867.82 1028.81 1931.07 1048.69 2015.04 1064.65L2015.24 1063.56ZM1808.89 969.197C1868.21 1001.22 1931.34 1021.08 2015.24 1037.02L2015.04 1038.11C1931.07 1022.16 1867.82 1002.27 1808.36 970.173C1748.91 938.079 1693.27 893.79 1624.5 829.07L1625.26 828.261C1694 892.955 1749.56 937.168 1808.89 969.197ZM2015.24 1010.49C1931.34 994.544 1868.21 974.687 1808.89 942.661C1749.56 910.633 1694 866.419 1625.26 801.725L1624.5 802.534C1693.27 867.254 1748.91 911.543 1808.36 943.637C1867.82 975.735 1931.07 995.622 2015.04 1011.58L2015.24 1010.49ZM1808.89 916.124C1868.21 948.15 1931.34 968.008 2015.24 983.952L2015.04 985.042C1931.07 969.085 1867.82 949.198 1808.36 917.101C1748.91 885.006 1693.27 840.718 1624.5 775.997L1625.26 775.189C1694 839.883 1749.56 884.096 1808.89 916.124ZM2015.24 957.416C1931.34 941.472 1868.21 921.614 1808.89 889.588C1749.56 857.56 1694 813.347 1625.26 748.653L1624.5 749.461C1693.27 814.182 1748.91 858.47 1808.36 890.565C1867.82 922.662 1931.07 942.549 2015.04 958.506L2015.24 957.416ZM1808.89 863.052C1868.21 895.078 1931.34 914.935 2015.24 930.879L2015.04 931.969C1931.07 916.013 1867.82 896.126 1808.36 864.028C1748.91 831.934 1693.27 787.645 1624.5 722.925L1625.26 722.116C1694 786.81 1749.56 831.023 1808.89 863.052ZM2015.24 904.343C1931.34 888.399 1868.21 868.542 1808.89 836.516C1749.56 804.488 1694 760.274 1625.26 695.58L1624.5 696.389C1693.27 761.109 1748.91 805.398 1808.36 837.492C1867.82 869.59 1931.07 889.477 2015.04 905.434L2015.24 904.343ZM1808.89 809.979C1868.21 842.005 1931.34 861.863 2015.24 877.807L2015.04 878.897C1931.07 862.94 1867.82 843.053 1808.36 810.956C1748.91 778.861 1693.27 734.573 1624.5 669.852L1625.26 669.044C1694 733.738 1749.56 777.951 1808.89 809.979ZM2015.24 851.271C1931.34 835.327 1868.21 815.469 1808.89 783.443C1749.56 751.415 1694 707.202 1625.26 642.508L1624.5 643.316C1693.27 708.037 1748.91 752.325 1808.36 784.42C1867.82 816.517 1931.07 836.404 2015.04 852.361L2015.24 851.271ZM1808.89 756.907C1868.21 788.933 1931.34 808.79 2015.24 824.734L2015.04 825.824C1931.07 809.868 1867.82 789.981 1808.36 757.883C1748.91 725.788 1693.27 681.5 1624.5 616.78L1625.26 615.971C1694 680.665 1749.56 724.878 1808.89 756.907ZM2015.24 798.198C1931.34 782.254 1868.21 762.397 1808.89 730.371C1749.56 698.343 1694 654.129 1625.26 589.435L1624.5 590.244C1693.27 654.964 1748.91 699.253 1808.36 731.347C1867.82 763.445 1931.07 783.332 2015.04 799.289L2015.24 798.198ZM1808.89 703.834C1868.21 735.86 1931.34 755.718 2015.24 771.662L2015.04 772.752C1931.07 756.795 1867.82 736.908 1808.36 704.811C1748.91 672.716 1693.27 628.428 1624.5 563.707L1625.26 562.899C1694 627.593 1749.56 671.806 1808.89 703.834ZM2015.24 745.126C1931.34 729.182 1868.21 709.324 1808.89 677.298C1749.56 645.27 1694 601.057 1625.26 536.363L1624.5 537.171C1693.27 601.892 1748.91 646.18 1808.36 678.275C1867.82 710.372 1931.07 730.259 2015.04 746.216L2015.24 745.126ZM1808.89 650.762C1868.21 682.788 1931.34 702.646 2015.24 718.59L2015.04 719.68C1931.07 703.723 1867.82 683.836 1808.36 651.739C1748.91 619.644 1693.27 575.356 1624.5 510.635L1625.26 509.827C1694 574.521 1749.56 618.734 1808.89 650.762ZM2015.24 692.053C1931.34 676.109 1868.21 656.252 1808.89 624.226C1749.56 592.197 1694 547.984 1625.26 483.29L1624.5 484.099C1693.27 548.819 1748.91 593.108 1808.36 625.202C1867.82 657.3 1931.07 677.187 2015.04 693.144L2015.24 692.053ZM1808.89 597.689C1868.21 629.715 1931.34 649.573 2015.24 665.517L2015.04 666.607C1931.07 650.65 1867.82 630.763 1808.36 598.666C1748.91 566.571 1693.27 522.283 1624.5 457.562L1625.26 456.754C1694 521.447 1749.56 565.661 1808.89 597.689ZM2015.24 638.981C1931.34 623.037 1868.21 603.179 1808.89 571.153C1749.56 539.125 1694 494.912 1625.26 430.218L1624.5 431.026C1693.27 495.747 1748.91 540.035 1808.36 572.13C1867.82 604.227 1931.07 624.114 2015.04 640.071L2015.24 638.981ZM1808.89 544.617C1868.21 576.643 1931.34 596.501 2015.24 612.445L2015.04 613.535C1931.07 597.578 1867.82 577.691 1808.36 545.594C1748.91 513.499 1693.27 469.211 1624.5 404.49L1625.26 403.682C1694 468.376 1749.56 512.589 1808.89 544.617ZM2015.24 585.908C1931.34 569.964 1868.21 550.107 1808.89 518.081C1749.56 486.052 1694 441.839 1625.26 377.145L1624.5 377.954C1693.27 442.674 1748.91 486.963 1808.36 519.057C1867.82 551.155 1931.07 571.042 2015.04 586.998L2015.24 585.908ZM1808.89 491.544C1868.21 523.57 1931.34 543.428 2015.24 559.372L2015.04 560.462C1931.07 544.505 1867.82 524.618 1808.36 492.521C1748.91 460.426 1693.27 416.138 1624.5 351.417L1625.26 350.609C1694 415.302 1749.56 459.516 1808.89 491.544ZM2015.24 532.836C1931.34 516.892 1868.21 497.034 1808.89 465.008C1749.56 432.98 1694 388.767 1625.26 324.073L1624.5 324.881C1693.27 389.602 1748.91 433.89 1808.36 465.985C1867.82 498.082 1931.07 517.969 2015.04 533.926L2015.24 532.836ZM1808.89 438.472C1868.21 470.498 1931.34 490.356 2015.24 506.3L2015.04 507.39C1931.07 491.433 1867.82 471.546 1808.36 439.449C1748.91 407.354 1693.27 363.066 1624.5 298.345L1625.26 297.537C1694 362.231 1749.56 406.444 1808.89 438.472ZM2015.24 479.763C1931.34 463.819 1868.21 443.961 1808.89 411.936C1749.56 379.907 1694 335.694 1625.26 271L1624.5 271.808C1693.27 336.529 1748.91 380.817 1808.36 412.912C1867.82 445.01 1931.07 464.896 2015.04 480.853L2015.24 479.763ZM1808.99 384.959C1868.32 416.985 1931.45 436.843 2015.35 452.787L2015.14 453.877C1931.17 437.92 1867.92 418.033 1808.47 385.936C1749.01 353.841 1693.37 309.553 1624.6 244.832L1625.36 244.024C1694.11 308.718 1749.66 352.931 1808.99 384.959ZM2015.45 425.811C1931.55 409.867 1868.42 390.009 1809.1 357.983C1749.77 325.955 1694.21 281.742 1625.47 217.048L1624.71 217.856C1693.48 282.577 1749.12 326.865 1808.57 358.96C1868.03 391.057 1931.27 410.944 2015.24 426.901L2015.45 425.811Z" fill="url(#paint1_linear_1736_4999)" style=""/>
<g filter="url(#filter1_f_1736_4999)">
<rect x="2062.24" y="418.132" width="745.212" height="140.283" transform="rotate(104.276 2062.24 418.132)" fill="#FF6423" fill-opacity="0.1" style="fill:#FF6423;fill:color(display-p3 1.0000 0.3922 0.1373);fill-opacity:0.1;"/>
</g>
</g>
<defs>
<filter id="filter0_f_1736_4999" x="-401.79" y="-312.29" width="1004.29" height="1441.37" filterUnits="userSpaceOnUse" color-interpolation-filters="sRGB">
<feFlood flood-opacity="0" result="BackgroundImageFix"/>
<feBlend mode="normal" in="SourceGraphic" in2="BackgroundImageFix" result="shape"/>
<feGaussianBlur stdDeviation="171.145" result="effect1_foregroundBlur_1736_4999"/>
</filter>
<filter id="filter1_f_1736_4999" x="1400.24" y="41.25" width="1004.29" height="1441.37" filterUnits="userSpaceOnUse" color-interpolation-filters="sRGB">
<feFlood flood-opacity="0" result="BackgroundImageFix"/>
<feBlend mode="normal" in="SourceGraphic" in2="BackgroundImageFix" result="shape"/>
<feGaussianBlur stdDeviation="171.145" result="effect1_foregroundBlur_1736_4999"/>
</filter>
<linearGradient id="paint0_linear_1736_4999" x1="500.06" y1="518.593" x2="-167.341" y2="206.146" gradientUnits="userSpaceOnUse">
<stop offset="0.025" stop-color="white" stop-opacity="0" style="stop-color:none;stop-opacity:0;"/>
<stop offset="1" stop-color="white" stop-opacity="0.24" style="stop-color:white;stop-opacity:0.24;"/>
<stop offset="1" stop-color="white" style="stop-color:white;stop-opacity:1;"/>
</linearGradient>
<linearGradient id="paint1_linear_1736_4999" x1="1502.68" y1="651.739" x2="2170.09" y2="964.186" gradientUnits="userSpaceOnUse">
<stop offset="0.025" stop-color="white" stop-opacity="0" style="stop-color:none;stop-opacity:0;"/>
<stop offset="1" stop-color="white" stop-opacity="0.24" style="stop-color:white;stop-opacity:0.24;"/>
<stop offset="1" stop-color="white" style="stop-color:white;stop-opacity:1;"/>
</linearGradient>
<clipPath id="clip0_1736_4999">
<rect width="1920" height="1080" fill="white" style="fill:white;fill-opacity:1;" transform="translate(0.5)"/>
</clipPath>
</defs>
</svg>
