<svg width="1920" height="1080" viewBox="0 0 1920 1080" fill="none" xmlns="http://www.w3.org/2000/svg">
<g clip-path="url(#clip0_1732_4835)">
<rect width="1920" height="1080" fill="white" style="fill:white;fill-opacity:1;"/>
<path fill-rule="evenodd" clip-rule="evenodd" d="M1932.74 1108.24C1848.84 1092.3 1785.71 1072.44 1726.39 1040.41C1667.06 1008.39 1611.5 964.173 1542.76 899.479L1542 900.287C1610.77 965.008 1666.41 1009.3 1725.86 1041.39C1785.32 1073.49 1848.57 1093.38 1932.54 1109.33L1932.74 1108.24ZM1932.74 1081.71C1848.84 1065.76 1785.71 1045.9 1726.39 1013.88C1667.06 981.85 1611.5 937.637 1542.76 872.943L1542 873.751C1610.77 938.472 1666.41 982.76 1725.86 1014.86C1785.32 1046.95 1848.57 1066.84 1932.54 1082.8L1932.74 1081.71ZM1726.39 987.342C1785.71 1019.37 1848.84 1039.23 1932.74 1055.17L1932.54 1056.26C1848.57 1040.3 1785.32 1020.42 1725.86 988.318C1666.41 956.224 1610.77 911.935 1542 847.215L1542.76 846.406C1611.5 911.1 1667.06 955.314 1726.39 987.342ZM1932.74 1028.63C1848.84 1012.69 1785.71 992.832 1726.39 960.806C1667.06 928.778 1611.5 884.564 1542.76 819.87L1542 820.679C1610.77 885.399 1666.41 929.688 1725.86 961.782C1785.32 993.88 1848.57 1013.77 1932.54 1029.72L1932.74 1028.63ZM1726.39 934.269C1785.71 966.295 1848.84 986.153 1932.74 1002.1L1932.54 1003.19C1848.57 987.23 1785.32 967.343 1725.86 935.246C1666.41 903.151 1610.77 858.863 1542 794.142L1542.76 793.334C1611.5 858.028 1667.06 902.241 1726.39 934.269ZM1932.74 975.561C1848.84 959.617 1785.71 939.759 1726.39 907.733C1667.06 875.705 1611.5 831.492 1542.76 766.798L1542 767.606C1610.77 832.327 1666.41 876.615 1725.86 908.71C1785.32 940.807 1848.57 960.694 1932.54 976.651L1932.74 975.561ZM1726.39 881.197C1785.71 913.223 1848.84 933.08 1932.74 949.024L1932.54 950.115C1848.57 934.158 1785.32 914.271 1725.86 882.173C1666.41 850.079 1610.77 805.79 1542 741.07L1542.76 740.261C1611.5 804.955 1667.06 849.168 1726.39 881.197ZM1932.74 922.488C1848.84 906.544 1785.71 886.687 1726.39 854.661C1667.06 822.633 1611.5 778.419 1542.76 713.725L1542 714.534C1610.77 779.254 1666.41 823.543 1725.86 855.637C1785.32 887.735 1848.57 907.622 1932.54 923.579L1932.74 922.488ZM1726.39 828.124C1785.71 860.15 1848.84 880.008 1932.74 895.952L1932.54 897.042C1848.57 881.085 1785.32 861.198 1725.86 829.101C1666.41 797.006 1610.77 752.718 1542 687.997L1542.76 687.189C1611.5 751.883 1667.06 796.096 1726.39 828.124ZM1932.74 869.416C1848.84 853.472 1785.71 833.614 1726.39 801.588C1667.06 769.56 1611.5 725.347 1542.76 660.653L1542 661.461C1610.77 726.182 1666.41 770.47 1725.86 802.565C1785.32 834.662 1848.57 854.549 1932.54 870.506L1932.74 869.416ZM1726.39 775.052C1785.71 807.078 1848.84 826.935 1932.74 842.879L1932.54 843.969C1848.57 828.013 1785.32 808.126 1725.86 776.028C1666.41 743.934 1610.77 699.645 1542 634.925L1542.76 634.116C1611.5 698.81 1667.06 743.023 1726.39 775.052ZM1932.74 816.343C1848.84 800.399 1785.71 780.542 1726.39 748.516C1667.06 716.488 1611.5 672.274 1542.76 607.58L1542 608.389C1610.77 673.109 1666.41 717.398 1725.86 749.492C1785.32 781.59 1848.57 801.477 1932.54 817.434L1932.74 816.343ZM1726.39 721.979C1785.71 754.005 1848.84 773.863 1932.74 789.807L1932.54 790.897C1848.57 774.94 1785.32 755.053 1725.86 722.956C1666.41 690.861 1610.77 646.573 1542 581.852L1542.76 581.044C1611.5 645.738 1667.06 689.951 1726.39 721.979ZM1932.74 763.271C1848.84 747.327 1785.71 727.469 1726.39 695.443C1667.06 663.415 1611.5 619.202 1542.76 554.508L1542 555.316C1610.77 620.037 1666.41 664.325 1725.86 696.42C1785.32 728.517 1848.57 748.404 1932.54 764.361L1932.74 763.271ZM1726.39 668.907C1785.71 700.933 1848.84 720.79 1932.74 736.734L1932.54 737.824C1848.57 721.868 1785.32 701.981 1725.86 669.883C1666.41 637.788 1610.77 593.5 1542 528.78L1542.76 527.971C1611.5 592.665 1667.06 636.878 1726.39 668.907ZM1932.74 710.198C1848.84 694.254 1785.71 674.397 1726.39 642.371C1667.06 610.343 1611.5 566.129 1542.76 501.435L1542 502.244C1610.77 566.964 1666.41 611.253 1725.86 643.347C1785.32 675.445 1848.57 695.332 1932.54 711.289L1932.74 710.198ZM1726.39 615.834C1785.71 647.86 1848.84 667.718 1932.74 683.662L1932.54 684.752C1848.57 668.795 1785.32 648.908 1725.86 616.811C1666.41 584.716 1610.77 540.428 1542 475.707L1542.76 474.899C1611.5 539.593 1667.06 583.806 1726.39 615.834ZM1932.74 657.126C1848.84 641.182 1785.71 621.324 1726.39 589.298C1667.06 557.27 1611.5 513.057 1542.76 448.363L1542 449.171C1610.77 513.892 1666.41 558.18 1725.86 590.275C1785.32 622.372 1848.57 642.259 1932.54 658.216L1932.74 657.126ZM1726.39 562.762C1785.71 594.788 1848.84 614.646 1932.74 630.59L1932.54 631.68C1848.57 615.723 1785.32 595.836 1725.86 563.739C1666.41 531.644 1610.77 487.356 1542 422.635L1542.76 421.827C1611.5 486.521 1667.06 530.734 1726.39 562.762ZM1932.74 604.053C1848.84 588.109 1785.71 568.252 1726.39 536.226C1667.06 504.197 1611.5 459.984 1542.76 395.29L1542 396.099C1610.77 460.819 1666.41 505.108 1725.86 537.202C1785.32 569.3 1848.57 589.187 1932.54 605.144L1932.74 604.053ZM1726.39 509.689C1785.71 541.715 1848.84 561.573 1932.74 577.517L1932.54 578.607C1848.57 562.65 1785.32 542.763 1725.86 510.666C1666.41 478.571 1610.77 434.283 1542 369.562L1542.76 368.754C1611.5 433.447 1667.06 477.661 1726.39 509.689ZM1932.74 550.981C1848.84 535.037 1785.71 515.179 1726.39 483.153C1667.06 451.125 1611.5 406.912 1542.76 342.218L1542 343.026C1610.77 407.747 1666.41 452.035 1725.86 484.13C1785.32 516.227 1848.57 536.114 1932.54 552.071L1932.74 550.981ZM1726.39 456.617C1785.71 488.643 1848.84 508.501 1932.74 524.445L1932.54 525.535C1848.57 509.578 1785.32 489.691 1725.86 457.594C1666.41 425.499 1610.77 381.211 1542 316.49L1542.76 315.682C1611.5 380.376 1667.06 424.589 1726.39 456.617ZM1932.74 497.908C1848.84 481.964 1785.71 462.107 1726.39 430.081C1667.06 398.052 1611.5 353.839 1542.76 289.145L1542 289.954C1610.77 354.674 1666.41 398.963 1725.86 431.057C1785.32 463.155 1848.57 483.042 1932.54 498.998L1932.74 497.908ZM1726.39 403.544C1785.71 435.57 1848.84 455.428 1932.74 471.372L1932.54 472.462C1848.57 456.505 1785.32 436.618 1725.86 404.521C1666.41 372.426 1610.77 328.138 1542 263.417L1542.76 262.609C1611.5 327.302 1667.06 371.516 1726.39 403.544ZM1932.74 444.836C1848.84 428.892 1785.71 409.034 1726.39 377.008C1667.06 344.98 1611.5 300.767 1542.76 236.073L1542 236.881C1610.77 301.602 1666.41 345.89 1725.86 377.985C1785.32 410.082 1848.57 429.969 1932.54 445.926L1932.74 444.836ZM1726.39 350.472C1785.71 382.498 1848.84 402.356 1932.74 418.3L1932.54 419.39C1848.57 403.433 1785.32 383.546 1725.86 351.449C1666.41 319.354 1610.77 275.066 1542 210.345L1542.76 209.537C1611.5 274.231 1667.06 318.444 1726.39 350.472ZM1932.74 391.763C1848.84 375.819 1785.71 355.961 1726.39 323.936C1667.06 291.907 1611.5 247.694 1542.76 183L1542 183.808C1610.77 248.529 1666.41 292.817 1725.86 324.912C1785.32 357.01 1848.57 376.896 1932.54 392.853L1932.74 391.763ZM1726.49 296.959C1785.82 328.985 1848.95 348.843 1932.85 364.787L1932.64 365.877C1848.67 349.92 1785.42 330.033 1725.97 297.936C1666.51 265.841 1610.87 221.553 1542.1 156.832L1542.86 156.024C1611.61 220.718 1667.16 264.931 1726.49 296.959ZM1932.95 337.811C1849.05 321.867 1785.92 302.009 1726.6 269.983C1667.27 237.955 1611.71 193.742 1542.97 129.048L1542.21 129.856C1610.98 194.577 1666.62 238.865 1726.07 270.96C1785.53 303.057 1848.77 322.944 1932.74 338.901L1932.95 337.811Z" fill="url(#paint0_linear_1732_4835)" style=""/>
<g filter="url(#filter0_f_1732_4835)">
<rect x="1979.74" y="330.132" width="745.212" height="140.283" transform="rotate(104.276 1979.74 330.132)" fill="#FF6423" fill-opacity="0.3" style="fill:#FF6423;fill:color(display-p3 1.0000 0.3922 0.1373);fill-opacity:0.3;"/>
</g>
<path fill-rule="evenodd" clip-rule="evenodd" d="M-12.9996 -25.9097C70.9026 -9.96589 134.03 9.89191 193.356 41.9177C252.686 73.946 308.242 118.159 376.984 182.853L377.744 182.045C308.973 117.324 253.336 73.0359 193.883 40.9411C134.425 8.84378 71.1788 -11.0431 -12.7924 -27L-12.9996 -25.9097ZM-12.9996 0.626223C70.9026 16.57 134.03 36.4278 193.356 68.4536C252.686 100.482 308.242 144.695 376.984 209.389L377.744 208.581C308.973 143.86 253.336 99.5719 193.883 67.477C134.425 35.3797 71.1788 15.4928 -12.7924 -0.464087L-12.9996 0.626223ZM193.356 94.9902C134.03 62.9644 70.9026 43.1066 -12.9996 27.1628L-12.7924 26.0725C71.1788 42.0294 134.425 61.9163 193.883 94.0136C253.336 126.108 308.973 170.397 377.744 235.117L376.984 235.926C308.242 171.232 252.686 127.018 193.356 94.9902ZM-12.9996 53.6987C70.9026 69.6425 134.03 89.5003 193.356 121.526C252.686 153.554 308.242 197.768 376.984 262.462L377.744 261.653C308.973 196.933 253.336 152.644 193.883 120.55C134.425 88.4522 71.1788 68.5653 -12.7924 52.6084L-12.9996 53.6987ZM193.356 148.063C134.03 116.037 70.9026 96.1791 -12.9996 80.2353L-12.7924 79.145C71.1788 95.1019 134.425 114.989 193.883 147.086C253.336 179.181 308.973 223.469 377.744 288.19L376.984 288.998C308.242 224.304 252.686 180.091 193.356 148.063ZM-12.9996 106.771C70.9026 122.715 134.03 142.573 193.356 174.599C252.686 206.627 308.242 250.84 376.984 315.534L377.744 314.726C308.973 250.005 253.336 205.717 193.883 173.622C134.425 141.525 71.1788 121.638 -12.7924 105.681L-12.9996 106.771ZM193.356 201.135C134.03 169.109 70.9026 149.252 -12.9996 133.308L-12.7924 132.218C71.1788 148.174 134.425 168.061 193.883 200.159C253.336 232.253 308.973 276.542 377.744 341.262L376.984 342.071C308.242 277.377 252.686 233.164 193.356 201.135ZM-12.9996 159.844C70.9026 175.788 134.03 195.645 193.356 227.671C252.686 259.699 308.242 303.913 376.984 368.607L377.744 367.798C308.973 303.078 253.336 258.789 193.883 226.695C134.425 194.597 71.1788 174.71 -12.7924 158.753L-12.9996 159.844ZM193.356 254.208C134.03 222.182 70.9026 202.324 -12.9996 186.38L-12.7924 185.29C71.1788 201.247 134.425 221.134 193.883 253.231C253.336 285.326 308.973 329.614 377.744 394.335L376.984 395.143C308.242 330.449 252.686 286.236 193.356 254.208ZM-12.9996 212.916C70.9026 228.86 134.03 248.718 193.356 280.744C252.686 312.772 308.242 356.985 376.984 421.679L377.744 420.871C308.973 356.15 253.336 311.862 193.883 279.767C134.425 247.67 71.1788 227.783 -12.7924 211.826L-12.9996 212.916ZM193.356 307.28C134.03 275.254 70.9026 255.397 -12.9996 239.453L-12.7924 238.363C71.1788 254.319 134.425 274.206 193.883 306.304C253.336 338.398 308.973 382.687 377.744 447.407L376.984 448.216C308.242 383.522 252.686 339.309 193.356 307.28ZM-12.9996 265.989C70.9026 281.933 134.03 301.79 193.356 333.816C252.686 365.844 308.242 410.058 376.984 474.752L377.744 473.943C308.973 409.223 253.336 364.934 193.883 332.84C134.425 300.742 71.1788 280.855 -12.7924 264.898L-12.9996 265.989ZM193.356 360.353C134.03 328.327 70.9026 308.469 -12.9996 292.525L-12.7924 291.435C71.1788 307.392 134.425 327.279 193.883 359.376C253.336 391.471 308.973 435.759 377.744 500.48L376.984 501.288C308.242 436.594 252.686 392.381 193.356 360.353ZM-12.9996 319.061C70.9026 335.005 134.03 354.863 193.356 386.889C252.686 418.917 308.242 463.13 376.984 527.824L377.744 527.016C308.973 462.295 253.336 418.007 193.883 385.912C134.425 353.815 71.1788 333.928 -12.7924 317.971L-12.9996 319.061ZM193.356 413.425C134.03 381.399 70.9026 361.542 -12.9996 345.598L-12.7924 344.508C71.1788 360.465 134.425 380.351 193.883 412.449C253.336 444.544 308.973 488.832 377.744 553.552L376.984 554.361C308.242 489.667 252.686 445.454 193.356 413.425ZM-12.9996 372.134C70.9026 388.078 134.03 407.935 193.356 439.961C252.686 471.989 308.242 516.203 376.984 580.897L377.744 580.088C308.973 515.368 253.336 471.079 193.883 438.985C134.425 406.887 71.1788 387 -12.7924 371.043L-12.9996 372.134ZM193.356 466.498C134.03 434.472 70.9026 414.614 -12.9996 398.67L-12.7924 397.58C71.1788 413.537 134.425 433.424 193.883 465.521C253.336 497.616 308.973 541.904 377.744 606.625L376.984 607.433C308.242 542.74 252.686 498.526 193.356 466.498ZM-12.9996 425.206C70.9026 441.15 134.03 461.008 193.356 493.034C252.686 525.062 308.242 569.275 376.984 633.969L377.744 633.161C308.973 568.44 253.336 524.152 193.883 492.057C134.425 459.96 71.1788 440.073 -12.7924 424.116L-12.9996 425.206ZM193.356 519.57C134.03 487.544 70.9026 467.686 -12.9996 451.742L-12.7924 450.652C71.1788 466.609 134.425 486.496 193.883 518.593C253.336 550.688 308.973 594.976 377.744 659.697L376.984 660.505C308.242 595.811 252.686 551.598 193.356 519.57ZM-12.9996 478.279C70.9026 494.223 134.03 514.08 193.356 546.106C252.686 578.135 308.242 622.348 376.984 687.042L377.744 686.233C308.973 621.513 253.336 577.224 193.883 545.13C134.425 513.032 71.1788 493.145 -12.7924 477.189L-12.9996 478.279ZM193.356 572.643C134.03 540.617 70.9026 520.759 -12.9996 504.815L-12.7924 503.725C71.1788 519.682 134.425 539.569 193.883 571.666C253.336 603.761 308.973 648.049 377.744 712.77L376.984 713.578C308.242 648.885 252.686 604.671 193.356 572.643ZM-12.9996 531.351C70.9026 547.295 134.03 567.153 193.356 599.179C252.686 631.207 308.242 675.42 376.984 740.114L377.744 739.306C308.973 674.585 253.336 630.297 193.883 598.202C134.425 566.105 71.1788 546.218 -12.7924 530.261L-12.9996 531.351ZM193.356 625.715C134.03 593.689 70.9026 573.831 -12.9996 557.887L-12.7924 556.797C71.1788 572.754 134.425 592.641 193.883 624.738C253.336 656.833 308.973 701.121 377.744 765.842L376.984 766.65C308.242 701.956 252.686 657.743 193.356 625.715ZM-12.9996 584.424C70.9026 600.368 134.03 620.225 193.356 652.251C252.686 684.28 308.242 728.493 376.984 793.187L377.744 792.378C308.973 727.658 253.336 683.37 193.883 651.275C134.425 619.177 71.1788 599.29 -12.7924 583.334L-12.9996 584.424ZM193.356 678.788C134.03 646.762 70.9026 626.904 -12.9996 610.961L-12.7924 609.87C71.1788 625.827 134.425 645.714 193.883 677.811C253.336 709.906 308.973 754.194 377.744 818.915L376.984 819.723C308.242 755.03 252.686 710.816 193.356 678.788ZM-12.9996 637.496C70.9026 653.44 134.03 673.298 193.356 705.324C252.686 737.352 308.242 781.565 376.984 846.259L377.744 845.451C308.973 780.73 253.336 736.442 193.883 704.347C134.425 672.25 71.1788 652.363 -12.7924 636.406L-12.9996 637.496ZM193.356 731.86C134.03 699.834 70.9026 679.976 -12.9996 664.032L-12.7924 662.942C71.1788 678.899 134.425 698.786 193.883 730.883C253.336 762.978 308.973 807.266 377.744 871.987L376.984 872.795C308.242 808.101 252.686 763.888 193.356 731.86ZM-12.9999 690.569C70.9023 706.513 134.03 726.371 193.355 758.396C252.685 790.425 308.241 834.638 376.983 899.332L377.744 898.524C308.973 833.803 253.336 789.515 193.882 757.42C134.425 725.323 71.1785 705.436 -12.7927 689.479L-12.9999 690.569ZM193.252 785.373C133.926 753.347 70.7987 733.489 -13.1035 717.545L-12.8963 716.455C71.0749 732.412 134.321 752.299 193.779 784.396C253.232 816.491 308.87 860.779 377.64 925.5L376.88 926.308C308.138 861.614 252.582 817.401 193.252 785.373ZM-13.207 744.521C70.6952 760.465 133.823 780.323 193.148 812.349C252.478 844.377 308.034 888.59 376.776 953.284L377.537 952.476C308.766 887.755 253.129 843.467 193.675 811.372C134.217 779.275 70.9714 759.388 -12.9998 743.431L-13.207 744.521Z" fill="url(#paint1_linear_1732_4835)" style=""/>
<g filter="url(#filter1_f_1732_4835)">
<rect x="-60" y="752.2" width="745.212" height="140.283" transform="rotate(-75.7242 -60 752.2)" fill="#FF6423" fill-opacity="0.3" style="fill:#FF6423;fill:color(display-p3 1.0000 0.3922 0.1373);fill-opacity:0.3;"/>
</g>
<path fill-rule="evenodd" clip-rule="evenodd" d="M666.121 582.327C666.121 586.335 669.348 589.584 673.329 589.584H695.92C699.901 589.584 703.128 586.335 703.128 582.327V559.15C703.128 557.252 704.657 555.712 706.543 555.712H720.014C723.995 555.712 727.222 552.463 727.222 548.455V521.841H736.621C740.602 521.841 743.829 518.591 743.829 514.583V491.407C743.829 487.399 740.602 484.15 736.621 484.15H673.329C669.348 484.15 666.121 487.399 666.121 491.407V582.327ZM723.428 521.841H691.308C687.326 521.841 684.099 518.591 684.099 514.583V508.343C684.099 504.335 687.327 501.086 691.308 501.086H720.014C723.995 501.086 727.222 504.335 727.222 508.343V518.022H736.621C738.507 518.022 740.036 516.482 740.036 514.583V491.407C740.036 489.508 738.507 487.969 736.621 487.969H673.329C671.443 487.969 669.915 489.508 669.915 491.407V582.327C669.915 584.226 671.443 585.764 673.329 585.764H695.92C697.806 585.764 699.335 584.226 699.335 582.327V559.15C699.335 555.142 702.562 551.893 706.543 551.893H720.014C721.9 551.893 723.428 550.354 723.428 548.455V521.841ZM723.428 518.022V508.343C723.428 506.444 721.9 504.905 720.014 504.905H691.308C689.421 504.905 687.893 506.444 687.893 508.343V514.583C687.893 516.482 689.422 518.022 691.308 518.022H723.428Z" fill="#0F172A" style="fill:#0F172A;fill:color(display-p3 0.0588 0.0902 0.1647);fill-opacity:1;"/>
<path d="M819.239 507.075V521.542H793.089V533.04H812.377V546.857H793.089V572.451H774.914V507.075H819.239ZM850.17 573.1C844.977 573.1 840.309 572.018 836.167 569.855C832.087 567.691 828.872 564.6 826.523 560.582C824.174 556.563 822.999 551.834 822.999 546.394C822.999 541.015 824.174 536.317 826.523 532.298C828.934 528.28 832.18 525.189 836.26 523.025C840.402 520.862 845.069 519.78 850.262 519.78C855.455 519.78 860.092 520.862 864.172 523.025C868.314 525.189 871.56 528.28 873.909 532.298C876.32 536.317 877.525 541.015 877.525 546.394C877.525 551.772 876.32 556.501 873.909 560.582C871.56 564.6 868.314 567.691 864.172 569.855C860.03 572.018 855.363 573.1 850.17 573.1ZM850.17 557.336C852.704 557.336 854.806 556.409 856.475 554.554C858.206 552.638 859.072 549.917 859.072 546.394C859.072 542.87 858.206 540.181 856.475 538.326C854.806 536.471 852.735 535.544 850.262 535.544C847.79 535.544 845.719 536.471 844.049 538.326C842.38 540.181 841.546 542.87 841.546 546.394C841.546 549.979 842.349 552.699 843.957 554.554C845.564 556.409 847.635 557.336 850.17 557.336ZM902.168 529.609C904.208 526.642 906.681 524.293 909.587 522.562C912.492 520.831 915.614 519.965 918.953 519.965V539.346H913.852C909.896 539.346 906.959 540.119 905.043 541.664C903.126 543.21 902.168 545.899 902.168 549.732V572.451H883.993V520.429H902.168V529.609ZM992.513 519.965C999.066 519.965 1004.2 521.943 1007.91 525.9C1011.68 529.856 1013.56 535.266 1013.56 542.128V572.451H995.388V544.539C995.388 541.757 994.615 539.593 993.07 538.048C991.524 536.502 989.422 535.729 986.764 535.729C984.106 535.729 982.004 536.502 980.458 538.048C978.913 539.593 978.14 541.757 978.14 544.539V572.451H959.965V544.539C959.965 541.757 959.192 539.593 957.646 538.048C956.163 536.502 954.092 535.729 951.433 535.729C948.713 535.729 946.58 536.502 945.035 538.048C943.489 539.593 942.716 541.757 942.716 544.539V572.451H924.541V520.429H942.716V527.291C944.324 525.065 946.395 523.303 948.929 522.005C951.526 520.645 954.493 519.965 957.832 519.965C961.665 519.965 965.065 520.8 968.032 522.469C971.061 524.138 973.441 526.487 975.172 529.516C977.027 526.673 979.469 524.385 982.498 522.654C985.528 520.862 988.866 519.965 992.513 519.965ZM1019.63 546.394C1019.63 541.015 1020.58 536.317 1022.5 532.298C1024.48 528.28 1027.14 525.189 1030.48 523.025C1033.88 520.862 1037.65 519.78 1041.79 519.78C1045.37 519.78 1048.47 520.491 1051.06 521.912C1053.66 523.334 1055.67 525.251 1057.09 527.662V520.429H1075.27V572.451H1057.09V565.218C1055.67 567.629 1053.63 569.546 1050.97 570.967C1048.37 572.389 1045.31 573.1 1041.79 573.1C1037.65 573.1 1033.88 572.018 1030.48 569.855C1027.14 567.691 1024.48 564.6 1022.5 560.582C1020.58 556.501 1019.63 551.772 1019.63 546.394ZM1057.09 546.394C1057.09 543.055 1056.16 540.428 1054.31 538.511C1052.52 536.595 1050.29 535.637 1047.63 535.637C1044.91 535.637 1042.65 536.595 1040.86 538.511C1039.07 540.366 1038.17 542.993 1038.17 546.394C1038.17 549.732 1039.07 552.39 1040.86 554.369C1042.65 556.285 1044.91 557.243 1047.63 557.243C1050.29 557.243 1052.52 556.285 1054.31 554.369C1056.16 552.452 1057.09 549.794 1057.09 546.394ZM1118.73 519.965C1124.72 519.965 1129.48 521.974 1133.01 525.993C1136.53 529.949 1138.29 535.328 1138.29 542.128V572.451H1120.12V544.539C1120.12 541.572 1119.35 539.253 1117.8 537.584C1116.25 535.853 1114.18 534.988 1111.59 534.988C1108.87 534.988 1106.73 535.853 1105.19 537.584C1103.64 539.253 1102.87 541.572 1102.87 544.539V572.451H1084.69V520.429H1102.87V527.847C1104.48 525.498 1106.64 523.613 1109.36 522.191C1112.08 520.707 1115.2 519.965 1118.73 519.965ZM1144.37 546.394C1144.37 541.015 1145.48 536.317 1147.71 532.298C1149.94 528.28 1153.03 525.189 1156.98 523.025C1161 520.862 1165.58 519.78 1170.71 519.78C1177.32 519.78 1182.89 521.603 1187.4 525.251C1191.91 528.836 1194.82 533.875 1196.12 540.366H1176.83C1175.72 536.966 1173.55 535.266 1170.34 535.266C1168.05 535.266 1166.23 536.224 1164.87 538.141C1163.57 539.995 1162.92 542.746 1162.92 546.394C1162.92 550.041 1163.57 552.823 1164.87 554.739C1166.23 556.656 1168.05 557.614 1170.34 557.614C1173.61 557.614 1175.78 555.914 1176.83 552.514H1196.12C1194.82 558.943 1191.91 563.982 1187.4 567.629C1182.89 571.277 1177.32 573.1 1170.71 573.1C1165.58 573.1 1161 572.018 1156.98 569.855C1153.03 567.691 1149.94 564.6 1147.71 560.582C1145.48 556.563 1144.37 551.834 1144.37 546.394ZM1252.44 545.837C1252.44 547.259 1252.35 548.681 1252.17 550.103H1217.76C1217.95 552.947 1218.72 555.079 1220.08 556.501C1221.5 557.861 1223.29 558.541 1225.46 558.541C1228.49 558.541 1230.65 557.181 1231.95 554.461H1251.33C1250.53 558.047 1248.95 561.262 1246.6 564.105C1244.31 566.887 1241.41 569.082 1237.88 570.689C1234.36 572.297 1230.47 573.1 1226.2 573.1C1221.07 573.1 1216.49 572.018 1212.48 569.855C1208.52 567.691 1205.4 564.6 1203.11 560.582C1200.88 556.563 1199.77 551.834 1199.77 546.394C1199.77 540.953 1200.88 536.255 1203.11 532.298C1205.34 528.28 1208.43 525.189 1212.38 523.025C1216.4 520.862 1221.01 519.78 1226.2 519.78C1231.33 519.78 1235.88 520.831 1239.83 522.933C1243.79 525.034 1246.88 528.064 1249.11 532.02C1251.33 535.915 1252.44 540.521 1252.44 545.837ZM1233.9 541.293C1233.9 539.068 1233.16 537.337 1231.67 536.1C1230.19 534.802 1228.33 534.153 1226.11 534.153C1223.88 534.153 1222.06 534.771 1220.64 536.008C1219.21 537.182 1218.29 538.944 1217.85 541.293H1233.9Z" fill="#0F172A" style="fill:#0F172A;fill:color(display-p3 0.0588 0.0902 0.1647);fill-opacity:1;"/>
</g>
<defs>
<filter id="filter0_f_1732_4835" x="1317.74" y="-46.75" width="1004.29" height="1441.37" filterUnits="userSpaceOnUse" color-interpolation-filters="sRGB">
<feFlood flood-opacity="0" result="BackgroundImageFix"/>
<feBlend mode="normal" in="SourceGraphic" in2="BackgroundImageFix" result="shape"/>
<feGaussianBlur stdDeviation="171.145" result="effect1_foregroundBlur_1732_4835"/>
</filter>
<filter id="filter1_f_1732_4835" x="-402.29" y="-312.29" width="1004.29" height="1441.37" filterUnits="userSpaceOnUse" color-interpolation-filters="sRGB">
<feFlood flood-opacity="0" result="BackgroundImageFix"/>
<feBlend mode="normal" in="SourceGraphic" in2="BackgroundImageFix" result="shape"/>
<feGaussianBlur stdDeviation="171.145" result="effect1_foregroundBlur_1732_4835"/>
</filter>
<linearGradient id="paint0_linear_1732_4835" x1="1409.8" y1="733.108" x2="2096.51" y2="877.211" gradientUnits="userSpaceOnUse">
<stop offset="0.025" stop-color="#574FEB" stop-opacity="0" style="stop-color:none;stop-opacity:0;"/>
<stop offset="1" stop-color="#15192E" stop-opacity="0.24" style="stop-color:#15192E;stop-color:color(display-p3 0.0824 0.0980 0.1804);stop-opacity:0.24;"/>
<stop offset="1" stop-color="#574FEB" style="stop-color:#574FEB;stop-color:color(display-p3 0.3412 0.3098 0.9216);stop-opacity:1;"/>
</linearGradient>
<linearGradient id="paint1_linear_1732_4835" x1="509.948" y1="349.224" x2="-176.77" y2="205.121" gradientUnits="userSpaceOnUse">
<stop offset="0.025" stop-color="#574FEB" stop-opacity="0" style="stop-color:none;stop-opacity:0;"/>
<stop offset="1" stop-color="#15192E" stop-opacity="0.24" style="stop-color:#15192E;stop-color:color(display-p3 0.0824 0.0980 0.1804);stop-opacity:0.24;"/>
<stop offset="1" stop-color="#574FEB" style="stop-color:#574FEB;stop-color:color(display-p3 0.3412 0.3098 0.9216);stop-opacity:1;"/>
</linearGradient>
<clipPath id="clip0_1732_4835">
<rect width="1920" height="1080" fill="white" style="fill:white;fill-opacity:1;"/>
</clipPath>
</defs>
</svg>
